<svg width="174" height="41" viewBox="0 0 174 41" fill="none" xmlns="http://www.w3.org/2000/svg">
<path d="M4.26982 0H2.68962C1.20431 0 0 1.20431 0 2.68962V4.26982L4.26982 0Z" fill="#272727"/>
<path d="M2.62979 9.76366C0.208038 12.1854 0.208038 15.4662 2.62979 17.8873C5.05155 20.309 8.33238 20.309 10.7534 17.8873L19.3456 9.29507C23.557 5.08364 29.1859 4.65301 33.6645 7.69444V2.68962C33.6645 1.20431 32.4602 0 30.9748 0H12.3927L2.62979 9.76366Z" fill="#272727"/>
<path d="M27.4714 33.6651H30.9763C32.4616 33.6651 33.6659 32.4608 33.6659 30.9755V27.4706L27.4721 33.6644L27.4714 33.6651Z" fill="#272727"/>
<path d="M31.0631 21.9492C33.4849 19.5274 33.4849 16.2466 31.0631 13.8256C28.6414 11.4038 25.3613 11.4038 22.9395 13.8256L14.3473 22.4178C10.1271 26.638 4.48295 27.0613 0 23.9994V30.9757C0 32.461 1.20431 33.6653 2.68962 33.6653H19.347L31.0631 21.9492Z" fill="#272727"/>
<path d="M62.4554 20.2527C62.4554 20.8687 62.3773 21.4227 62.2211 21.9146C62.0649 22.4066 61.8591 22.8409 61.6029 23.2168C61.3467 23.5926 61.0467 23.9131 60.703 24.1765C60.3592 24.4408 60.003 24.6568 59.6351 24.8247C59.2673 24.9926 58.8928 25.1166 58.5126 25.1969C58.1323 25.2772 57.7747 25.3166 57.4382 25.3166H45.4009V22.1964H57.4382C58.0381 22.1964 58.5045 22.0205 58.8366 21.6679C59.1687 21.3161 59.3344 20.8439 59.3344 20.252C59.3344 19.9637 59.2906 19.7002 59.2023 19.46C59.114 19.2199 58.9885 19.0119 58.8242 18.836C58.66 18.6601 58.46 18.5236 58.2243 18.428C57.9885 18.3316 57.7265 18.2842 57.4382 18.2842H50.2612C49.7569 18.2842 49.2131 18.1944 48.6292 18.0141C48.0453 17.8339 47.503 17.5441 47.003 17.1441C46.5031 16.7441 46.087 16.2201 45.7549 15.5719C45.4228 14.9238 45.2571 14.1319 45.2571 13.1954C45.2571 12.259 45.4228 11.4693 45.7549 10.8255C46.087 10.1818 46.5031 9.6577 47.003 9.25334C47.503 8.84971 48.0453 8.55703 48.6292 8.37748C49.2131 8.1972 49.7576 8.10742 50.2612 8.10742H60.8825V11.2277H50.2612C49.6693 11.2277 49.2073 11.408 48.8752 11.7678C48.5431 12.1276 48.3774 12.6042 48.3774 13.1962C48.3774 13.7881 48.5431 14.2706 48.8752 14.618C49.2073 14.9661 49.6693 15.1399 50.2612 15.1399H57.4623C57.798 15.1479 58.1542 15.1939 58.5301 15.2778C58.906 15.3617 59.2804 15.4917 59.6519 15.6676C60.0242 15.8435 60.3782 16.0661 60.7139 16.3339C61.0496 16.6018 61.3482 16.9244 61.608 17.3003C61.8678 17.6762 62.0737 18.1083 62.2262 18.5966C62.378 19.0849 62.4539 19.6367 62.4539 20.2527H62.4554Z" fill="#272727"/>
<path d="M81.5383 8.10742L73.3891 24.7057C73.2614 24.9619 73.0709 25.1677 72.8191 25.3239C72.5673 25.4801 72.2892 25.5582 71.9848 25.5582C71.6805 25.5582 71.4148 25.4801 71.163 25.3239C70.9112 25.1677 70.717 24.9619 70.5805 24.7057L62.4438 8.10742H65.9363L71.9848 20.5052L78.0575 8.10742H81.5376H81.5383Z" fill="#272727"/>
<path d="M99.2525 25.3174H96.1323V21.0928H85.1629V25.3174H82.0426V16.712C82.0426 15.4559 82.2586 14.2998 82.6907 13.2436C83.1228 12.1875 83.7228 11.2795 84.4906 10.519C85.2585 9.75915 86.1664 9.16721 87.2153 8.74242C88.2634 8.31836 89.4071 8.10669 90.6479 8.10669H97.6811C97.8971 8.10669 98.1008 8.14683 98.2935 8.22639C98.4854 8.30668 98.6533 8.41835 98.7978 8.56214C98.9423 8.70592 99.054 8.8738 99.1336 9.06649C99.2131 9.25845 99.2533 9.46281 99.2533 9.67886V25.3166L99.2525 25.3174ZM85.1629 17.9725H96.1323V11.2277H90.6479C90.5516 11.2277 90.3501 11.2415 90.0421 11.27C89.7341 11.2985 89.3779 11.3678 88.9743 11.4802C88.57 11.5926 88.1444 11.7641 87.6963 11.9962C87.2481 12.2283 86.8357 12.548 86.4599 12.956C86.084 13.364 85.7738 13.8742 85.53 14.4859C85.2862 15.0982 85.1636 15.8398 85.1636 16.712V17.9725H85.1629Z" fill="#272727"/>
<path d="M119.584 13.8925C119.584 14.6048 119.495 15.2406 119.319 15.8004C119.143 16.3602 118.905 16.8544 118.605 17.2828C118.305 17.7112 117.96 18.0769 117.568 18.3805C117.176 18.6849 116.765 18.9345 116.338 19.1309C115.909 19.3272 115.477 19.4688 115.041 19.5571C114.605 19.6454 114.196 19.6892 113.812 19.6892L120.329 25.3181H115.504L108.999 19.6892H106.755V16.569H113.812C114.204 16.5369 114.562 16.4551 114.886 16.323C115.21 16.1909 115.49 16.0128 115.726 15.7887C115.962 15.5646 116.144 15.2946 116.272 14.9786C116.4 14.6625 116.464 14.3005 116.464 13.8925V11.924C116.464 11.7481 116.442 11.6138 116.398 11.5218C116.355 11.4299 116.298 11.362 116.23 11.3182C116.163 11.2744 116.09 11.2481 116.014 11.2401C115.938 11.2321 115.868 11.2277 115.804 11.2277H105.507V25.3174H102.387V9.67959C102.387 9.46355 102.427 9.25918 102.506 9.06722C102.586 8.87526 102.696 8.70739 102.836 8.56287C102.976 8.41908 103.142 8.30668 103.334 8.22712C103.526 8.14757 103.734 8.10742 103.958 8.10742H115.803C116.5 8.10742 117.087 8.23369 117.568 8.4855C118.048 8.73731 118.438 9.05408 118.738 9.43362C119.038 9.81389 119.254 10.2241 119.386 10.6635C119.518 11.1036 119.584 11.5153 119.584 11.8999V13.8925Z" fill="#272727"/>
<path d="M137.647 11.2277H130.77V25.3174H127.649V11.2277H120.761V8.10742H137.647V11.2277Z" fill="#272727"/>
<path d="M155.001 25.3174H143.743C143.311 25.3174 142.839 25.2415 142.327 25.0896C141.815 24.9378 141.341 24.6875 140.906 24.3393C140.469 23.9912 140.106 23.5394 139.814 22.9832C139.522 22.427 139.376 21.7453 139.376 20.9366V9.67959C139.376 9.46355 139.416 9.25918 139.495 9.06722C139.575 8.87526 139.685 8.70739 139.825 8.56287C139.966 8.41908 140.131 8.30668 140.323 8.22712C140.515 8.14757 140.723 8.10742 140.947 8.10742H155.001V11.2277H142.495V20.9366C142.495 21.3446 142.603 21.657 142.819 21.873C143.035 22.0891 143.351 22.1971 143.767 22.1971H155.001V25.3174ZM153.597 18.2849H143.743V15.1406H153.597V18.2849Z" fill="#272727"/>
<path d="M174 20.2527C174 20.8687 173.922 21.4227 173.766 21.9146C173.609 22.4066 173.404 22.8409 173.147 23.2168C172.891 23.5926 172.591 23.9131 172.248 24.1765C171.904 24.4408 171.548 24.6568 171.18 24.8247C170.812 24.9926 170.437 25.1166 170.058 25.1969C169.678 25.2772 169.32 25.3166 168.983 25.3166H156.946V22.1964H168.983C169.583 22.1964 170.05 22.0205 170.382 21.6679C170.714 21.3161 170.88 20.8439 170.88 20.252C170.88 19.9637 170.836 19.7002 170.748 19.46C170.659 19.2199 170.534 19.0119 170.37 18.836C170.205 18.6601 170.005 18.5236 169.77 18.428C169.533 18.3316 169.272 18.2842 168.983 18.2842H161.807C161.302 18.2842 160.758 18.1944 160.175 18.0141C159.591 17.8339 159.048 17.5441 158.548 17.1441C158.048 16.7441 157.632 16.2201 157.3 15.5719C156.968 14.9238 156.802 14.1319 156.802 13.1954C156.802 12.259 156.968 11.4693 157.3 10.8255C157.632 10.1818 158.048 9.6577 158.548 9.25334C159.048 8.84971 159.591 8.55703 160.175 8.37748C160.758 8.1972 161.303 8.10742 161.807 8.10742H172.428V11.2277H161.807C161.215 11.2277 160.753 11.408 160.42 11.7678C160.088 12.1276 159.923 12.6042 159.923 13.1962C159.923 13.7881 160.088 14.2706 160.42 14.618C160.753 14.9661 161.215 15.1399 161.807 15.1399H169.008C169.343 15.1479 169.7 15.1939 170.075 15.2778C170.451 15.3617 170.826 15.4917 171.197 15.6676C171.569 15.8435 171.923 16.0661 172.259 16.3339C172.595 16.6018 172.893 16.9244 173.153 17.3003C173.413 17.6762 173.619 18.1083 173.772 18.5966C173.923 19.0849 173.999 19.6367 173.999 20.2527H174Z" fill="#272727"/>
<path d="M67.4224 32.9958H70.8244C71.3462 32.9958 71.7659 33.1433 72.0834 33.4374C72.4009 33.7316 72.56 34.1199 72.56 34.6016V35.6351C72.56 36.1504 72.3892 36.5664 72.0484 36.8847C71.7075 37.2022 71.2586 37.3613 70.7039 37.3613H68.1654V40.0203H67.4231V32.9958H67.4224ZM70.6835 36.6986C71.0243 36.6986 71.2988 36.6 71.5061 36.4022C71.7134 36.2051 71.817 35.9424 71.817 35.6147V34.5812C71.817 34.3067 71.725 34.0841 71.5411 33.914C71.3572 33.7433 71.1112 33.6579 70.8032 33.6579H68.1639V36.6986H70.6828H70.6835Z" fill="#272727"/>
<path d="M74.4066 39.7896C74.0519 39.5823 73.776 39.2881 73.5789 38.9064C73.3819 38.5254 73.2826 38.0838 73.2826 37.5817V35.4344C73.2826 34.9329 73.3811 34.4913 73.5789 34.1096C73.776 33.7286 74.0519 33.4337 74.4066 33.2265C74.7613 33.0192 75.1723 32.9155 75.6408 32.9155H76.7043C77.1721 32.9155 77.5838 33.0192 77.9385 33.2265C78.2932 33.4337 78.5691 33.7279 78.7662 34.1096C78.9633 34.4906 79.0625 34.9322 79.0625 35.4344V37.5817C79.0625 38.0831 78.964 38.5232 78.7662 38.9013C78.5691 39.2794 78.2911 39.5735 77.9334 39.7845C77.5758 39.9954 77.1656 40.1005 76.7043 40.1005H75.6306C75.1693 40.1005 74.7606 39.9969 74.4066 39.7896ZM76.6846 39.4385C77.1729 39.4385 77.5677 39.2677 77.8685 38.9269C78.1692 38.586 78.3203 38.1378 78.3203 37.5824V35.4351C78.3203 34.8796 78.1699 34.4315 77.8685 34.0906C77.5677 33.7498 77.1729 33.579 76.6846 33.579H75.6613C75.173 33.579 74.7781 33.7498 74.4774 34.0906C74.1767 34.4315 74.0256 34.8804 74.0256 35.4351V37.5824C74.0256 38.1378 74.1745 38.586 74.4723 38.9269C74.7701 39.2677 75.1628 39.4385 75.6511 39.4385H76.6846Z" fill="#272727"/>
<path d="M80.4376 39.8495C80.3238 39.7356 80.2668 39.575 80.2668 39.3677V32.9958H83.1769C83.6718 32.9958 84.1068 33.0915 84.4812 33.282C84.8556 33.4725 85.1469 33.7433 85.3541 34.0951C85.5614 34.4461 85.6651 34.8498 85.6651 35.3045V37.5124C85.6651 38.335 85.4578 38.959 85.0432 39.3838C84.6286 39.8086 84.0199 40.021 83.217 40.021H80.9194C80.7121 40.021 80.5515 39.9641 80.4376 39.8502V39.8495ZM83.1973 39.3582C83.7659 39.3582 84.1958 39.2028 84.487 38.8919C84.7783 38.5809 84.9235 38.1211 84.9235 37.5124V35.3045C84.9235 34.8162 84.7615 34.4199 84.4367 34.1155C84.1119 33.8111 83.6856 33.6586 83.1572 33.6586H81.0099V39.3582H83.1973Z" fill="#272727"/>
<path d="M87 39.8495C86.8862 39.7356 86.8292 39.575 86.8292 39.3677V32.9958H87.5715V39.3582H91.3844V40.0203H87.481C87.2737 40.0203 87.1131 39.9633 86.9993 39.8495H87Z" fill="#272727"/>
<path d="M96.2323 38.0737H93.1515L92.4289 40.0203H91.6662L94.3653 32.9958H94.7062C94.9266 32.9958 95.0872 33.1294 95.1879 33.3973L96.733 37.4511H96.7433V37.4715L97.7169 40.0203H96.9542L96.2316 38.0737H96.2323ZM93.3822 37.4511H96.001L94.6967 33.9593H94.6865L93.3822 37.4511Z" fill="#272727"/>
<path d="M98.5403 32.9958H99.2826V36.1468H103.156V32.9958H103.898V40.0203H103.156V36.8088H99.2826V40.0203H98.5403V32.9958Z" fill="#272727"/>
<path d="M107.25 37.3211L104.661 32.9958H105.464L107.621 36.6482L109.779 32.9958H110.582L107.993 37.3211V40.0203H107.251V37.3211H107.25Z" fill="#272727"/>
<path d="M118.359 40.0202L117.767 39.2976C117.526 39.5582 117.25 39.7575 116.939 39.8947C116.628 40.0319 116.292 40.1005 115.93 40.1005H115.409C114.84 40.1005 114.382 39.9501 114.033 39.6487C113.685 39.348 113.512 38.9531 113.512 38.4648V38.0532C113.512 37.732 113.58 37.4547 113.717 37.2204C113.855 36.9861 114.035 36.7854 114.259 36.6182C114.483 36.4511 114.776 36.2672 115.137 36.0664L114.886 35.7351C114.558 35.3001 114.394 34.9059 114.394 34.5512V34.3505C114.394 33.9089 114.538 33.5593 114.825 33.3016C115.113 33.044 115.498 32.9155 115.979 32.9155H116.381C116.816 32.9155 117.165 33.0425 117.43 33.2965C117.694 33.5505 117.826 33.8855 117.826 34.3001V34.5008C117.826 34.7351 117.781 34.9373 117.69 35.1081C117.6 35.2789 117.451 35.4446 117.243 35.6052C117.036 35.7657 116.735 35.9533 116.341 36.1672L116.14 36.2774L117.695 38.1736C117.869 37.7926 117.976 37.3678 118.016 36.8992H118.678C118.638 37.6087 118.468 38.224 118.167 38.7458L119.221 40.0202H118.358H118.359ZM116.703 39.2779C116.944 39.1575 117.154 38.9867 117.335 38.7663L115.549 36.5788C115.248 36.7394 115.007 36.8832 114.826 37.0102C114.646 37.1372 114.501 37.2846 114.395 37.4518C114.287 37.6189 114.234 37.8196 114.234 38.0539V38.4656C114.234 38.7597 114.343 38.9991 114.56 39.183C114.778 39.367 115.06 39.4589 115.409 39.4589H115.93C116.205 39.4589 116.463 39.3991 116.703 39.2787L116.703 39.2779ZM115.409 35.3745L115.74 35.8161L115.951 35.6957C116.279 35.5088 116.526 35.3526 116.693 35.2293C116.86 35.1052 116.977 34.9884 117.044 34.8782C117.111 34.768 117.145 34.6424 117.145 34.5016V34.3008C117.145 34.0739 117.073 33.8892 116.929 33.7491C116.785 33.6089 116.603 33.5381 116.382 33.5381H115.981C115.7 33.5381 115.479 33.6082 115.319 33.7491C115.158 33.8892 115.078 34.0899 115.078 34.3512V34.5417C115.078 34.8023 115.188 35.0804 115.409 35.3745H115.409Z" fill="#272727"/>
<path d="M122.623 39.8495C122.51 39.7356 122.453 39.575 122.453 39.3677V32.9958H125.363C125.858 32.9958 126.293 33.0915 126.667 33.282C127.041 33.4725 127.333 33.7433 127.54 34.0951C127.747 34.4461 127.851 34.8498 127.851 35.3045V37.5124C127.851 38.335 127.644 38.959 127.229 39.3838C126.814 39.8086 126.206 40.021 125.403 40.021H123.105C122.898 40.021 122.737 39.9641 122.623 39.8502V39.8495ZM125.383 39.3582C125.952 39.3582 126.382 39.2028 126.673 38.8919C126.964 38.5809 127.109 38.1211 127.109 37.5124V35.3045C127.109 34.8162 126.947 34.4199 126.623 34.1155C126.298 33.8111 125.871 33.6586 125.343 33.6586H123.196V39.3582H125.383Z" fill="#272727"/>
<path d="M130.847 39.91C130.763 39.8363 130.692 39.7195 130.631 39.559L128.233 32.9958H128.995L131.183 39.1269H131.193L133.391 32.9958H134.153L131.544 40.0203H131.163C131.036 40.0203 130.93 39.9838 130.847 39.91Z" fill="#272727"/>
<path d="M135.147 39.8451C135.033 39.7283 134.976 39.5655 134.976 39.3582V32.9958H139.693V33.6381H135.719V36.1066H139.392V36.7489H135.719V39.378H139.693V40.0203H135.629C135.421 40.0203 135.261 39.9619 135.147 39.8444V39.8451Z" fill="#272727"/>
<path d="M140.796 32.9958H144.208C144.723 32.9958 145.136 33.141 145.447 33.4323C145.758 33.7235 145.913 34.1067 145.913 34.5811V35.3139C145.913 35.6686 145.799 35.981 145.573 36.2518C145.345 36.5226 145.04 36.7153 144.659 36.8291V36.8394C144.86 36.9467 145.043 37.1167 145.206 37.351C145.37 37.5853 145.495 37.8495 145.583 38.1437L146.135 40.0202H145.372L144.82 38.1437C144.727 37.8159 144.564 37.5517 144.333 37.351C144.103 37.1503 143.85 37.0503 143.576 37.0503H141.538V40.0209H140.796V32.9965V32.9958ZM143.947 36.3876C144.315 36.3876 144.611 36.289 144.835 36.0912C145.059 35.8942 145.172 35.6343 145.172 35.3139V34.541C145.172 34.2738 145.081 34.0592 144.901 33.8987C144.721 33.7381 144.483 33.6578 144.189 33.6578H141.539V36.3876H143.948H143.947ZM141.699 30.5573H142.381L143.224 31.6813L144.067 30.5573H144.75L143.495 32.1827H142.943L141.699 30.5573Z" fill="#272727"/>
<path d="M147.288 39.8451C147.175 39.7283 147.118 39.5655 147.118 39.3582V32.9958H151.834V33.6381H147.861V36.1066H151.533V36.7489H147.861V39.378H151.834V40.0203H147.77C147.563 40.0203 147.402 39.9619 147.288 39.8444V39.8451Z" fill="#272727"/>
</svg>
